# xmcd
#
# Track frame offsets: 
#        150
#        20393
#        38146
#        56321
#
# Disc length: 959 seconds
#
# Revision: 0
# Processed by: cddbd v1.5.2PL0 Copyright (c) Steve Scherf et al.
# Submitted via: ExactAudioCopy v0.99pb4
#
DISCID=2503bd04
DTITLE=vitor and Leo - PROMO
DYEAR=2006
DGENRE=Country
TTITLE0=Eu, um amor e uma saudade
TTITLE1=Chorando pela morena
TTITLE2=Amigo apaixonado
TTITLE3=O nosso amor é pra valer
EXTD=
EXTT0=
EXTT1=
EXTT2=
EXTT3=
PLAYORDER=
